<?xml version="1.0" encoding="iso-8859-1"?>
<!-- Uploaded to: SVG Repo, www.svgrepo.com, Generator: SVG Repo Mixer Tools -->
<svg fill="#000000" version="1.1" id="Layer_1" xmlns="http://www.w3.org/2000/svg" xmlns:xlink="http://www.w3.org/1999/xlink" 
	 viewBox="0 0 511.984 511.984" xml:space="preserve">
<g>
	<g>
		
			<rect x="453.341" y="38.704" transform="matrix(0.7071 -0.7071 0.7071 0.7071 106.9369 351.1636)" width="48.04" height="15.587"/>
	</g>
</g>
<g>
	<g>
		<rect x="441.26" y="66.808" transform="matrix(0.7071 -0.7071 0.7071 0.7071 78.6233 339.4428)" width="15.587" height="16.013"/>
	</g>
</g>
<g>
	<g>
		
			<rect x="429.306" y="14.702" transform="matrix(0.7071 -0.7071 0.7071 0.7071 116.8692 327.1383)" width="48.04" height="15.587"/>
	</g>
</g>
<g>
	<g>
		<rect x="417.248" y="42.773" transform="matrix(0.7071 -0.7071 0.7071 0.7071 88.5849 315.422)" width="15.587" height="16.013"/>
	</g>
</g>
<g>
	<g>
		<rect x="91.108" y="296.402" width="329.412" height="15.587"/>
	</g>
</g>
<g>
	<g>
		<rect x="244.903" y="320.303" width="15.587" height="15.587"/>
	</g>
</g>
<g>
	<g>
		<rect x="221.002" y="320.303" width="16.626" height="15.587"/>
	</g>
</g>
<g>
	<g>
		<rect x="267.764" y="320.303" width="16.626" height="15.587"/>
	</g>
</g>
<g>
	<g>
		<path d="M460.042,264.193c-3.431-23.031-23.334-40.754-47.303-40.754c-1.718,0-3.45,0.098-5.146,0.291
			c-7,0.794-13.367-1.348-17.46-5.882c-10.574-11.713-25.683-18.431-41.451-18.431c-3.525,0-7.058,0.337-10.5,1.001
			c-1.369,0.263-2.73,0.376-4.066,0.353L443.243,91.645l-11.022-11.021L319.712,193.132c-3.707-4.961-7.825-9.542-12.29-13.709
			L419.222,67.623L408.2,56.602L295.183,169.618c-17.09-11.701-37.517-18.242-58.599-18.242c-29.997,0-58.525,13.025-78.27,35.734
			c-4.41,5.071-11.244,7.256-18.276,5.845c-5.103-1.025-10.336-1.544-15.553-1.544c-41.647,0-75.93,32.052-79.526,72.781H12.128
			v7.794c0,132.335,107.709,239.998,240.045,239.998s240.045-107.663,240.045-239.998v-7.794H460.042z M62.352,254.838h15.241
			v-15.587h-8.801c11.114-19.256,31.906-32.254,55.691-32.254c4.188,0,8.388,0.417,12.485,1.24
			c12.408,2.491,25.092-1.687,33.105-10.9c11.408-13.12,26.262-22.432,42.608-27.055v12.854h15.587v-15.587h-1.776
			c3.332-0.385,6.698-0.587,10.088-0.587c18.674,0,36.294,5.715,50.958,16.174h-3.156v15.587h15.587v-4.825
			c2.711,2.825,5.266,5.846,7.638,9.069c7.641,10.382,20.488,15.268,33.523,12.756c2.473-0.477,5.012-0.718,7.549-0.718
			c11.366,0,22.257,4.843,29.881,13.289c7.505,8.313,18.731,12.294,30.791,10.924c1.115-0.127,2.254-0.191,3.385-0.191
			c5.858,0,11.351,1.578,16.089,4.32v11.493h11.638c1.703,2.863,2.971,6.01,3.723,9.352h-46.535v-8.313h-16.627v8.313H244.899
			v-8.313h-16.626v8.313H60.614C60.965,260.998,61.549,257.875,62.352,254.838z M475.689,296.405h-46.86v15.587h44.601
			c-18.919,104.721-110.74,184.403-220.831,184.403S50.686,416.713,31.767,311.992h45.828v-15.587H29.508
			c-0.596-5.486-0.995-11.031-1.187-16.627h448.554C476.683,285.375,476.285,290.919,475.689,296.405z"/>
	</g>
</g>
<g>
	<g>
		<rect x="91.108" y="230.936" width="16.626" height="15.587"/>
	</g>
</g>
<g>
	<g>
		<rect x="117.087" y="216.388" width="15.587" height="15.587"/>
	</g>
</g>
<g>
	<g>
		<rect x="140.987" y="239.249" width="15.587" height="15.587"/>
	</g>
</g>
<g>
	<g>
		<rect x="163.849" y="216.388" width="16.626" height="15.587"/>
	</g>
</g>
<g>
	<g>
		<rect x="188.789" y="183.135" width="15.587" height="15.587"/>
	</g>
</g>
<g>
	<g>
		<rect x="237.629" y="183.135" width="14.548" height="15.587"/>
	</g>
</g>
<g>
	<g>
		<rect x="188.789" y="239.249" width="15.587" height="15.587"/>
	</g>
</g>
<g>
	<g>
		<rect x="228.276" y="216.388" width="16.626" height="15.587"/>
	</g>
</g>
<g>
	<g>
		<polygon points="293.739,239.251 293.739,224.703 277.113,224.703 277.113,240.29 293.739,240.29 293.739,254.838 
			308.287,254.838 308.287,239.251 		"/>
	</g>
</g>
<g>
	<g>
		<polygon points="349.853,224.703 349.853,239.251 333.227,239.251 333.227,254.838 349.853,254.838 349.853,240.29 
			364.402,240.29 364.402,224.703 		"/>
	</g>
</g>
</svg>