<?xml version="1.0" encoding="iso-8859-1"?>
<!-- Uploaded to: SVG Repo, www.svgrepo.com, Generator: SVG Repo Mixer Tools -->
<!DOCTYPE svg PUBLIC "-//W3C//DTD SVG 1.1//EN" "http://www.w3.org/Graphics/SVG/1.1/DTD/svg11.dtd">
<svg height="800px" width="800px" version="1.1" id="Capa_1" xmlns="http://www.w3.org/2000/svg" xmlns:xlink="http://www.w3.org/1999/xlink"
	 viewBox="0 0 349.484 349.484" xml:space="preserve">
<g>
	<g>
		<g>
			<path d="M120.539,308.749c-2.681,0-5.273-1.44-6.623-3.971c-24.832-46.53-0.776-85.931,0.26-87.585
				c2.199-3.512,6.826-4.576,10.338-2.376c3.504,2.194,4.569,6.81,2.387,10.318c-0.871,1.415-20.373,33.941,0.248,72.58
				c1.951,3.654,0.569,8.198-3.085,10.148C122.939,308.464,121.73,308.748,120.539,308.749z"/>
		</g>
		<g>
			<path d="M211.461,77.569c-9.21,0-18.154,2.37-26.358,6.924c0.561-6.26,1.471-12.578,2.777-18.953
				c0.785-3.835-1.51-7.629-5.271-8.713l-2.777-0.801l2.615-48.119c0.112-2.057-0.627-4.069-2.043-5.564
				C178.988,0.847,177.018,0,174.959,0h-38.347c-2.089,0-4.082,0.87-5.501,2.402c-1.42,1.531-2.137,3.586-1.977,5.668l2.599,34.097
				l-13.094-3.773c-2.91-0.835-6.037,0.156-7.931,2.517c-1.893,2.363-2.179,5.633-0.727,8.289l18.157,33.193
				c5.813,56.949-20.934,94.524-26.949,102.166c-16.796,19.604-26.425,47.455-26.425,76.487c0,34.324,7.434,56.002,24.011,69.629
				c1.184,10.567,10.172,18.809,21.048,18.809h73.789c10.876,0,19.864-8.241,21.048-18.808c16.578-13.633,24.01-35.311,24.01-69.63
				c0-12.076-1.678-23.939-4.836-35.094c11.211-5.139,21.168-14.162,28.365-25.858c8.191-13.313,12.521-29.171,12.521-45.859
				C274.72,111.962,246.342,77.569,211.461,77.569z M167.04,15l-1.999,36.765l-17.926-5.166L144.705,15H167.04z M171.914,69.355
				c-4.158,24.839-2.693,46.577,1.264,64.72h-32.956c3.411-15.646,4.977-33.97,2.691-54.657c-0.003-0.033-0.131-1.693-0.887-2.894
				L131.778,57.79L171.914,69.355z M203.116,320.652c-2.688,1.961-3.918,5.239-3.374,8.44c-0.389,3.037-2.99,5.392-6.13,5.392
				h-73.789c-3.14,0-5.741-2.354-6.13-5.392c0.539-3.202-0.695-6.484-3.381-8.446c-14.211-10.363-20.548-28.744-20.548-59.6
				c0-24.819,7.889-48.478,21.676-65.329c2.161-2.484,15.82-18.908,24.747-46.643h41.029c8.933,27.723,22.611,44.156,24.783,46.649
				c13.783,16.852,21.67,40.504,21.67,65.322C223.669,291.904,217.332,310.287,203.116,320.652z M218.615,192.912
				c-2.023-2.961-4.173-5.798-6.469-8.47c-3.01-3.816-10.786-14.538-17.289-30.887c-3.532-8.883-6.156-17.984-7.896-27.27
				c5.768-7.338,13.568-11.595,21.663-11.595c17.069,0,30.957,18.036,30.957,40.205
				C239.581,172.149,230.792,187.411,218.615,192.912z M228.843,211.744c-0.836-1.971-1.717-3.911-2.652-5.813
				c16.81-8.313,28.39-28.165,28.39-51.036c0-30.44-20.616-55.205-45.957-55.205c-8.569,0-17.036,4.962-24.138,10.15
				c-0.091-1.547,0.067-5.2,0.023-6.755c0.136-0.101,0.277-0.189,0.408-0.3c7.896-6.684,17.076-10.217,26.544-10.217
				c26.61,0,48.259,27.663,48.259,61.666C259.72,179.77,247.232,202.624,228.843,211.744z"/>
		</g>
	</g>
</g>
</svg>