<?xml version="1.0" encoding="iso-8859-1"?>
<!-- Uploaded to: SVG Repo, www.svgrepo.com, Generator: SVG Repo Mixer Tools -->
<svg fill="#000000" height="800px" width="800px" version="1.1" id="Layer_1" xmlns="http://www.w3.org/2000/svg" xmlns:xlink="http://www.w3.org/1999/xlink" 
	 viewBox="0 0 512 512" xml:space="preserve">
<g>
	<g>
		<path d="M470.764,148.178c-28.101-29.367-66.648-44.889-111.474-44.889c-84.231,0-128.541,37.741-167.634,71.038
			c-15.96,13.592-31.034,26.432-47.975,36.236c-5.795,3.354-18.817,5.985-32.602,8.769c-21.681,4.381-48.665,9.832-70.453,22.094
			C13.668,256.597,0,279.316,0,308.952c0,55.007,44.752,99.759,99.759,99.759h259.529c84.206,0,152.712-68.506,152.712-152.712
			C512,214.258,497.356,175.966,470.764,148.178z M359.288,388.313H99.759c-43.76,0-79.361-35.601-79.361-79.361
			c0-46.691,42.897-59.155,94.719-69.625c16.809-3.396,30.088-6.079,38.779-11.109c18.541-10.73,34.3-24.152,50.984-38.362
			c38.193-32.531,77.686-66.169,154.408-66.169c77.904,0,132.313,54.41,132.313,132.313
			C491.602,328.956,432.246,388.313,359.288,388.313z"/>
	</g>
</g>
<g>
	<g>
		<path d="M382.823,219.651c-33.019,0-59.883,26.864-59.883,59.883s26.864,59.883,59.883,59.883
			c33.019,0,59.883-26.864,59.883-59.883C442.706,246.514,415.842,219.651,382.823,219.651z M382.823,319.017
			c-21.772,0-39.484-17.712-39.484-39.484c0-21.772,17.712-39.484,39.484-39.484c21.771,0,39.484,17.712,39.484,39.484
			C422.307,301.305,404.595,319.017,382.823,319.017z"/>
	</g>
</g>
<g>
	<g>
		<path d="M231.158,347.781H93.875c-5.633,0-10.199,4.567-10.199,10.199s4.566,10.199,10.199,10.199h137.283
			c5.633,0,10.198-4.567,10.198-10.199S236.791,347.781,231.158,347.781z"/>
	</g>
</g>
<g>
	<g>
		<path d="M280.841,347.781h-6.537c-5.632,0-10.199,4.567-10.199,10.199s4.567,10.199,10.199,10.199h6.537
			c5.633,0,10.199-4.567,10.199-10.199S286.473,347.781,280.841,347.781z"/>
	</g>
</g>
</svg>